<mxfile host="app.diagrams.net" agent="Mozilla/5.0 (Windows NT 10.0; Win64; x64) AppleWebKit/537.36 (KHTML, like Gecko) Chrome/133.0.0.0 Safari/537.36" version="26.0.16">
  <diagram name="Página-1" id="GeYfe8w_beSqAfepe232">
    <mxGraphModel dx="926" dy="484" grid="1" gridSize="10" guides="1" tooltips="1" connect="1" arrows="1" fold="1" page="1" pageScale="1" pageWidth="827" pageHeight="1169" math="0" shadow="0">
      <root>
        <mxCell id="0" />
        <mxCell id="1" parent="0" />
        <mxCell id="X9kCdasWsXgwVDJDxiYt-1" value="Curso" style="whiteSpace=wrap;html=1;align=center;" vertex="1" parent="1">
          <mxGeometry x="363" y="510" width="100" height="40" as="geometry" />
        </mxCell>
        <mxCell id="X9kCdasWsXgwVDJDxiYt-2" value="Nome" style="ellipse;whiteSpace=wrap;html=1;align=center;" vertex="1" parent="1">
          <mxGeometry x="363" y="600" width="100" height="40" as="geometry" />
        </mxCell>
        <mxCell id="X9kCdasWsXgwVDJDxiYt-3" value="Relationship" style="shape=rhombus;perimeter=rhombusPerimeter;whiteSpace=wrap;html=1;align=center;" vertex="1" parent="1">
          <mxGeometry x="500" y="500" width="120" height="60" as="geometry" />
        </mxCell>
        <mxCell id="X9kCdasWsXgwVDJDxiYt-4" value="Valor" style="ellipse;whiteSpace=wrap;html=1;align=center;" vertex="1" parent="1">
          <mxGeometry x="363" y="690" width="100" height="40" as="geometry" />
        </mxCell>
        <mxCell id="X9kCdasWsXgwVDJDxiYt-5" value="Carga horária" style="ellipse;whiteSpace=wrap;html=1;align=center;" vertex="1" parent="1">
          <mxGeometry x="363" y="770" width="100" height="40" as="geometry" />
        </mxCell>
        <mxCell id="X9kCdasWsXgwVDJDxiYt-6" value="Instrutor" style="whiteSpace=wrap;html=1;align=center;" vertex="1" parent="1">
          <mxGeometry x="480" y="410" width="100" height="40" as="geometry" />
        </mxCell>
        <mxCell id="X9kCdasWsXgwVDJDxiYt-7" value="Nome" style="ellipse;whiteSpace=wrap;html=1;align=center;" vertex="1" parent="1">
          <mxGeometry x="660" y="570" width="100" height="40" as="geometry" />
        </mxCell>
        <mxCell id="X9kCdasWsXgwVDJDxiYt-8" value="Endereço" style="ellipse;whiteSpace=wrap;html=1;align=center;" vertex="1" parent="1">
          <mxGeometry x="660" y="640" width="100" height="40" as="geometry" />
        </mxCell>
        <mxCell id="X9kCdasWsXgwVDJDxiYt-9" value="Telefone" style="ellipse;whiteSpace=wrap;html=1;align=center;" vertex="1" parent="1">
          <mxGeometry x="660" y="710" width="100" height="40" as="geometry" />
        </mxCell>
        <mxCell id="X9kCdasWsXgwVDJDxiYt-10" value="Email" style="ellipse;whiteSpace=wrap;html=1;align=center;" vertex="1" parent="1">
          <mxGeometry x="660" y="770" width="100" height="40" as="geometry" />
        </mxCell>
        <mxCell id="X9kCdasWsXgwVDJDxiYt-11" value="salário" style="ellipse;whiteSpace=wrap;html=1;align=center;" vertex="1" parent="1">
          <mxGeometry x="660" y="830" width="100" height="40" as="geometry" />
        </mxCell>
        <mxCell id="X9kCdasWsXgwVDJDxiYt-26" value="" style="edgeStyle=none;rounded=0;orthogonalLoop=1;jettySize=auto;html=1;endArrow=none;startFill=0;" edge="1" parent="1" source="X9kCdasWsXgwVDJDxiYt-12" target="X9kCdasWsXgwVDJDxiYt-23">
          <mxGeometry relative="1" as="geometry" />
        </mxCell>
        <mxCell id="X9kCdasWsXgwVDJDxiYt-12" value="Aluno" style="whiteSpace=wrap;html=1;align=center;" vertex="1" parent="1">
          <mxGeometry x="314" y="410" width="96" height="40" as="geometry" />
        </mxCell>
        <mxCell id="X9kCdasWsXgwVDJDxiYt-13" value="Relationship" style="shape=rhombus;perimeter=rhombusPerimeter;whiteSpace=wrap;html=1;align=center;" vertex="1" parent="1">
          <mxGeometry x="190" y="500" width="120" height="60" as="geometry" />
        </mxCell>
        <mxCell id="X9kCdasWsXgwVDJDxiYt-14" value="Nome" style="ellipse;whiteSpace=wrap;html=1;align=center;" vertex="1" parent="1">
          <mxGeometry x="50" y="600" width="100" height="40" as="geometry" />
        </mxCell>
        <mxCell id="X9kCdasWsXgwVDJDxiYt-15" value="Endereço" style="ellipse;whiteSpace=wrap;html=1;align=center;" vertex="1" parent="1">
          <mxGeometry x="50" y="670" width="100" height="40" as="geometry" />
        </mxCell>
        <mxCell id="X9kCdasWsXgwVDJDxiYt-16" value="Telefone" style="ellipse;whiteSpace=wrap;html=1;align=center;" vertex="1" parent="1">
          <mxGeometry x="50" y="740" width="100" height="40" as="geometry" />
        </mxCell>
        <mxCell id="X9kCdasWsXgwVDJDxiYt-17" value="Email" style="ellipse;whiteSpace=wrap;html=1;align=center;" vertex="1" parent="1">
          <mxGeometry x="50" y="810" width="100" height="40" as="geometry" />
        </mxCell>
        <mxCell id="X9kCdasWsXgwVDJDxiYt-18" value="grau de instrução" style="ellipse;whiteSpace=wrap;html=1;align=center;" vertex="1" parent="1">
          <mxGeometry x="50" y="870" width="100" height="40" as="geometry" />
        </mxCell>
        <mxCell id="X9kCdasWsXgwVDJDxiYt-19" value="Avaliação" style="whiteSpace=wrap;html=1;align=center;" vertex="1" parent="1">
          <mxGeometry x="40" y="400" width="100" height="40" as="geometry" />
        </mxCell>
        <mxCell id="X9kCdasWsXgwVDJDxiYt-20" value="Nota" style="ellipse;whiteSpace=wrap;html=1;align=center;" vertex="1" parent="1">
          <mxGeometry x="40" y="320" width="100" height="40" as="geometry" />
        </mxCell>
        <mxCell id="X9kCdasWsXgwVDJDxiYt-21" value="Assiduidade" style="ellipse;whiteSpace=wrap;html=1;align=center;" vertex="1" parent="1">
          <mxGeometry x="170" y="320" width="100" height="40" as="geometry" />
        </mxCell>
        <mxCell id="X9kCdasWsXgwVDJDxiYt-25" value="" style="edgeStyle=orthogonalEdgeStyle;rounded=0;orthogonalLoop=1;jettySize=auto;html=1;endArrow=none;startFill=0;" edge="1" parent="1" source="X9kCdasWsXgwVDJDxiYt-22" target="X9kCdasWsXgwVDJDxiYt-23">
          <mxGeometry relative="1" as="geometry" />
        </mxCell>
        <mxCell id="X9kCdasWsXgwVDJDxiYt-22" value="Pessoa" style="whiteSpace=wrap;html=1;align=center;" vertex="1" parent="1">
          <mxGeometry x="400" y="300" width="100" height="40" as="geometry" />
        </mxCell>
        <mxCell id="X9kCdasWsXgwVDJDxiYt-23" value="" style="strokeWidth=2;html=1;shape=mxgraph.flowchart.extract_or_measurement;whiteSpace=wrap;" vertex="1" parent="1">
          <mxGeometry x="430" y="370" width="40" height="30" as="geometry" />
        </mxCell>
      </root>
    </mxGraphModel>
  </diagram>
</mxfile>
